<svg xmlns="http://www.w3.org/2000/svg" version="1.1" xmlns:xlink="http://www.w3.org/1999/xlink" xmlns:svgjs="http://svgjs.dev/svgjs" width="1500" height="261" viewBox="0 0 1500 261"><g transform="matrix(1,0,0,1,-0.9090909090906507,-0.9243380933172602)"><svg viewBox="0 0 396 69" data-background-color="#27374d" preserveAspectRatio="xMidYMid meet" height="261" width="1500" xmlns="http://www.w3.org/2000/svg" xmlns:xlink="http://www.w3.org/1999/xlink"><g id="tight-bounds" transform="matrix(1,0,0,1,0.23999999999992383,0.24436524306088359)"><svg viewBox="0 0 395.5199999999999 68.51126951387822" height="68.51126951387822" width="395.5199999999999"><g><svg viewBox="0 0 522.967328061996 90.58746854724964" height="68.51126951387822" width="395.5199999999999"><g><rect width="5.911194934774612" height="65.87583638928066" x="106.06180083723554" y="12.355816078984489" fill="#dde6ed" opacity="1" stroke-width="0" stroke="transparent" fill-opacity="1" class="rect-qz-0" data-fill-palette-color="primary" rx="1%" id="qz-0" data-palette-color="#dde6ed"></rect></g><g transform="matrix(1,0,0,1,127.44732806199605,12.519686318758815)"><svg viewBox="0 0 395.52 65.54809590973201" height="65.54809590973201" width="395.52"><g id="textblocktransform"><svg viewBox="0 0 395.52 65.54809590973201" height="65.54809590973201" width="395.52" id="textblock"><g><svg viewBox="0 0 395.52 65.54809590973201" height="65.54809590973201" width="395.52"><g transform="matrix(1,0,0,1,0,0)"><svg width="395.52" viewBox="1.05 -37 282.92999999999995 47" height="65.54809590973201" data-palette-color="#dde6ed"><g class="wordmark-text-0" data-fill-palette-color="primary" id="text-0"><path d="M27.9 0L23.8 0 20.7-10.45 8.15-10.45 5.05 0 1.05 0 11.95-34.9 16.95-34.9 27.9 0ZM19.8-13.75L15.75-27 14.65-31.35 14.15-31.35 13.05-27 9.1-13.75 19.8-13.75ZM39.8 0L36.65 0Q34.6 0 33.67-0.93 32.75-1.85 32.75-3.9L32.75-3.9 32.75-37 36.55-37 36.55-3.35 39.8-3.35 39.8 0ZM45.09 10L45.09-25.8 48.9-25.8 48.9-21.6 49.4-21.6Q50.15-24.15 51.82-25.28 53.5-26.4 55.9-26.4L55.9-26.4Q58.2-26.4 59.95-25.45 61.7-24.5 62.9-22.75 64.09-21 64.7-18.5 65.3-16 65.3-12.9L65.3-12.9Q65.3-9.8 64.7-7.3 64.09-4.8 62.9-3.05 61.7-1.3 59.95-0.35 58.2 0.6 55.9 0.6L55.9 0.6Q53.5 0.6 51.82-0.53 50.15-1.65 49.4-4.2L49.4-4.2 48.9-4.2 48.9 10 45.09 10ZM54.75-2.8L54.75-2.8Q57.9-2.8 59.55-4.78 61.2-6.75 61.2-10.3L61.2-10.3 61.2-15.5Q61.2-19.05 59.55-21.03 57.9-23 54.75-23L54.75-23Q53.55-23 52.47-22.65 51.4-22.3 50.62-21.65 49.84-21 49.37-20.1 48.9-19.2 48.9-18.1L48.9-18.1 48.9-7.7Q48.9-6.6 49.37-5.7 49.84-4.8 50.62-4.15 51.4-3.5 52.47-3.15 53.55-2.8 54.75-2.8ZM71.29 0L71.29-37 75.09-37 75.09-21.6 75.59-21.6Q76.34-24 77.92-25.2 79.49-26.4 82.19-26.4L82.19-26.4Q85.64-26.4 87.62-24.05 89.59-21.7 89.59-16.8L89.59-16.8 89.59 0 85.79 0 85.79-16.55Q85.79-19.65 84.52-21.3 83.24-22.95 80.59-22.95L80.59-22.95Q78.29-22.95 76.69-21.55 75.09-20.15 75.09-17.6L75.09-17.6 75.09 0 71.29 0ZM115.94 0L113.24 0Q109.54 0 109.54-3.7L109.54-3.7 109.54-4.2 109.04-4.2Q108.39-1.85 106.67-0.63 104.94 0.6 102.54 0.6L102.54 0.6Q98.79 0.6 96.94-1.3 95.09-3.2 95.09-6.9L95.09-6.9Q95.09-10.5 97.47-12.6 99.84-14.7 104.89-14.7L104.89-14.7 109.54-14.7 109.54-17.55Q109.54-20.4 108.27-21.75 106.99-23.1 104.24-23.1L104.24-23.1Q101.99-23.1 100.62-22.13 99.24-21.15 98.24-19.3L98.24-19.3 95.99-21.4Q96.99-23.5 99.19-24.93 101.39-26.35 104.39-26.35L104.39-26.35Q108.79-26.35 111.07-24.23 113.34-22.1 113.34-17.95L113.34-17.95 113.34-3.35 115.94-3.35 115.94 0ZM103.49-2.7L103.49-2.7Q104.79-2.7 105.92-3.15 107.04-3.6 107.84-4.33 108.64-5.05 109.09-5.98 109.54-6.9 109.54-7.9L109.54-7.9 109.54-11.8 104.79-11.8Q101.79-11.8 100.42-10.8 99.04-9.8 99.04-7.9L99.04-7.9 99.04-6.5Q99.04-4.55 100.24-3.63 101.44-2.7 103.49-2.7Z" fill="#dde6ed" data-fill-palette-color="primary"></path><path d="M155.04 0L155.04-23.95 155.39-29.95 154.89-29.95 152.29-23.95 144.79-8.55 137.29-23.95 134.69-29.85 134.19-29.85 134.54-23.95 134.54 0 130.64 0 130.64-34.9 135.94-34.9 142.24-21.35 144.59-14.9 144.99-14.9 147.34-21.35 153.64-34.9 158.94-34.9 158.94 0 155.04 0ZM175.64 0.6L175.64 0.6Q173.39 0.6 171.44-0.15 169.49-0.9 168.09-2.55 166.69-4.2 165.89-6.75 165.09-9.3 165.09-12.9L165.09-12.9Q165.09-16.5 165.89-19.05 166.69-21.6 168.09-23.25 169.49-24.9 171.44-25.65 173.39-26.4 175.64-26.4L175.64-26.4Q177.89-26.4 179.84-25.65 181.78-24.9 183.19-23.25 184.59-21.6 185.39-19.05 186.19-16.5 186.19-12.9L186.19-12.9Q186.19-9.3 185.39-6.75 184.59-4.2 183.19-2.55 181.78-0.9 179.84-0.15 177.89 0.6 175.64 0.6ZM175.64-2.8L175.64-2.8Q178.74-2.8 180.41-4.65 182.09-6.5 182.09-10.3L182.09-10.3 182.09-15.5Q182.09-19.3 180.41-21.15 178.74-23 175.64-23L175.64-23Q172.54-23 170.86-21.15 169.19-19.3 169.19-15.5L169.19-15.5 169.19-10.3Q169.19-6.5 170.86-4.65 172.54-2.8 175.64-2.8ZM195.83 0L192.03 0 192.03-25.8 195.83-25.8 195.83-21.6 196.33-21.6Q197.08-24 198.66-25.2 200.23-26.4 202.93-26.4L202.93-26.4Q206.38-26.4 208.36-24.05 210.33-21.7 210.33-16.8L210.33-16.8 210.33 0 206.53 0 206.53-16.55Q206.53-19.65 205.26-21.3 203.98-22.95 201.33-22.95L201.33-22.95Q199.03-22.95 197.43-21.55 195.83-20.15 195.83-17.6L195.83-17.6 195.83 0ZM217.68 0L217.68-37 221.48-37 221.48-18 221.18-12.95 221.58-12.95 225.18-17.8 231.63-25.8 236.23-25.8 227.68-15.55 236.98 0 232.43 0 224.88-13.3 221.48-9.3 221.48 0 217.68 0ZM250.33 0.6L250.33 0.6Q248.08 0.6 246.13-0.15 244.18-0.9 242.78-2.55 241.38-4.2 240.58-6.75 239.78-9.3 239.78-12.9L239.78-12.9Q239.78-16.5 240.58-19.05 241.38-21.6 242.78-23.25 244.18-24.9 246.13-25.65 248.08-26.4 250.33-26.4L250.33-26.4Q252.58-26.4 254.45-25.65 256.33-24.9 257.63-23.25 258.93-21.6 259.65-19.05 260.38-16.5 260.38-12.9L260.38-12.9 260.38-11.95 243.83-11.95 243.83-10.3Q243.83-6.5 245.55-4.63 247.28-2.75 250.33-2.75L250.33-2.75Q252.93-2.75 254.58-3.88 256.23-5 257.18-7.25L257.18-7.25 259.78-5.35Q258.58-2.7 256.25-1.05 253.93 0.6 250.33 0.6ZM250.33-23.2L250.33-23.2Q247.23-23.2 245.53-21.25 243.83-19.3 243.83-15.5L243.83-15.5 243.83-14.85 256.33-14.85 256.33-15.5Q256.33-23.2 250.33-23.2ZM276.33-12.8L280.28-25.8 283.98-25.8 273.78 6.6Q273.48 7.6 273.13 8.28 272.78 8.95 272.25 9.33 271.73 9.7 271 9.85 270.28 10 269.18 10L269.18 10 266.38 10 266.38 6.65 270.33 6.65 271.83 1.4 263.28-25.8 267.08-25.8 271.03-12.8 273.43-3.35 273.93-3.35 276.33-12.8Z" fill="#d7dbde" data-fill-palette-color="secondary"></path></g></svg></g></svg></g></svg></g></svg></g><g><svg viewBox="0 0 90.58746854724964 90.58746854724964" height="90.58746854724964" width="90.58746854724964"><g><svg xmlns="http://www.w3.org/2000/svg" xmlns:xlink="http://www.w3.org/1999/xlink" xml:space="preserve" version="1.1" style="shape-rendering:geometricPrecision;text-rendering:geometricPrecision;image-rendering:optimizeQuality;" viewBox="5 5 990 990" x="0" y="0" fill-rule="evenodd" clip-rule="evenodd" height="90.58746854724964" width="90.58746854724964" class="icon-icon-0" data-fill-palette-color="accent" id="icon-0"><g fill="#f84e45" data-fill-palette-color="accent"><path class="" d="M500 5c273 0 495 222 495 495 0 273-222 495-495 495-273 0-495-222-495-495 0-273 222-495 495-495z m302 691c11-13 31-15 44-4 13 11 14 31 3 44-139 163-210 18-253-118-196 317-465 151-452-134 12-266 322-485 467-25 37-78 69-158 102-238 6-15 24-23 40-16 16 6 23 24 17 40-42 101-82 203-133 300 29 94 57 277 165 151z m-231-158c-127-426-354-301-366-51-12 259 204 352 366 51z" fill="#f84e45" data-fill-palette-color="accent"></path></g></svg></g></svg></g></svg></g><defs></defs></svg><rect width="395.5199999999999" height="68.51126951387822" fill="none" stroke="none" visibility="hidden"></rect></g></svg></g></svg>